<?xml version="1.0" encoding="UTF-8" standalone="no"?>
<!-- Generator: Adobe Illustrator 19.0.0, SVG Export Plug-In . SVG Version: 6.00 Build 0)  -->

<svg
   version="1.1"
   id="Layer_1"
   x="0px"
   y="0px"
   viewBox="0 0 330 330"
   style="enable-background:new 0 0 330 330;"
   xml:space="preserve"
   sodipodi:docname="loading-icon.svg"
   inkscape:version="1.2.1 (9c6d41e410, 2022-07-14)"
   xmlns:inkscape="http://www.inkscape.org/namespaces/inkscape"
   xmlns:sodipodi="http://sodipodi.sourceforge.net/DTD/sodipodi-0.dtd"
   xmlns="http://www.w3.org/2000/svg"
   xmlns:svg="http://www.w3.org/2000/svg"><defs
   id="defs43" /><sodipodi:namedview
   id="namedview41"
   pagecolor="#ffffff"
   bordercolor="#000000"
   borderopacity="0.25"
   inkscape:showpageshadow="2"
   inkscape:pageopacity="0.0"
   inkscape:pagecheckerboard="0"
   inkscape:deskcolor="#d1d1d1"
   showgrid="false"
   inkscape:zoom="1.9909091"
   inkscape:cx="164.74886"
   inkscape:cy="125.06849"
   inkscape:window-width="1600"
   inkscape:window-height="837"
   inkscape:window-x="-8"
   inkscape:window-y="-8"
   inkscape:window-maximized="1"
   inkscape:current-layer="Layer_1" />
<g
   id="XMLID_11_"
   transform="translate(0,7.5)">
	<path
   id="XMLID_12_"
   d="m 165,232.5 c -8.284,0 -15,6.716 -15,15 v 60 c 0,8.284 6.716,15 15,15 8.284,0 15,-6.716 15,-15 v -60 c 0,-8.284 -6.716,-15 -15,-15 z" />
	<path
   id="XMLID_13_"
   d="m 165,7.5 c -8.284,0 -15,6.716 -15,15 v 30 c 0,8.284 6.716,15 15,15 8.284,0 15,-6.716 15,-15 v -30 c 0,-8.284 -6.716,-15 -15,-15 z" />
	<path
   id="XMLID_14_"
   d="m 90,157.5 c 0,-8.284 -6.716,-15 -15,-15 H 15 c -8.284,0 -15,6.716 -15,15 0,8.284 6.716,15 15,15 h 60 c 8.284,0 15,-6.716 15,-15 z" />
	<path
   id="XMLID_15_"
   d="m 315,142.5 h -60 c -8.284,0 -15,6.716 -15,15 0,8.284 6.716,15 15,15 h 60 c 8.284,0 15,-6.716 15,-15 0,-8.284 -6.716,-15 -15,-15 z" />
	<path
   id="XMLID_16_"
   d="M 90.752,210.533 48.327,252.96 c -5.857,5.858 -5.857,15.355 0,21.213 2.929,2.929 6.768,4.393 10.607,4.393 3.839,0 7.678,-1.464 10.607,-4.393 l 42.426,-42.427 c 5.857,-5.858 5.857,-15.355 -0.001,-21.213 -5.858,-5.858 -15.355,-5.858 -21.214,0 z" />
	<path
   id="XMLID_17_"
   d="m 228.639,108.86 c 3.839,0 7.678,-1.464 10.606,-4.394 l 42.426,-42.427 c 5.858,-5.858 5.858,-15.355 0,-21.213 -5.857,-5.857 -15.355,-5.858 -21.213,0 l -42.426,42.427 c -5.858,5.858 -5.858,15.355 0,21.213 2.929,2.93 6.768,4.394 10.607,4.394 z" />
	<path
   id="XMLID_18_"
   d="m 239.245,210.533 c -5.856,-5.857 -15.355,-5.858 -21.213,-10e-4 -5.858,5.858 -5.858,15.355 0,21.213 l 42.426,42.427 c 2.929,2.929 6.768,4.393 10.607,4.393 3.838,0 7.678,-1.465 10.606,-4.393 5.858,-5.858 5.858,-15.355 0,-21.213 z" />
</g>
<g
   id="g10">
</g>
<g
   id="g12">
</g>
<g
   id="g14">
</g>
<g
   id="g16">
</g>
<g
   id="g18">
</g>
<g
   id="g20">
</g>
<g
   id="g22">
</g>
<g
   id="g24">
</g>
<g
   id="g26">
</g>
<g
   id="g28">
</g>
<g
   id="g30">
</g>
<g
   id="g32">
</g>
<g
   id="g34">
</g>
<g
   id="g36">
</g>
<g
   id="g38">
</g>
</svg>
