<?xml version="1.0" encoding="UTF-8" standalone="no"?>
<!-- Generator: Adobe Illustrator 20.1.0, SVG Export Plug-In . SVG Version: 6.00 Build 0)  -->

<svg
   version="1.1"
   id="Pokéball"
   x="0px"
   y="0px"
   viewBox="0 0 595.3 594.1"
   style="enable-background:new 0 0 595.3 594.1;"
   xml:space="preserve"
   sodipodi:docname="Poke_Ball_icon_bot.svg"
   inkscape:version="1.2 (dc2aedaf03, 2022-05-15)"
   xmlns:inkscape="http://www.inkscape.org/namespaces/inkscape"
   xmlns:sodipodi="http://sodipodi.sourceforge.net/DTD/sodipodi-0.dtd"
   xmlns="http://www.w3.org/2000/svg"
   xmlns:svg="http://www.w3.org/2000/svg"><defs
   id="defs1935">
	
	
</defs><sodipodi:namedview
   id="namedview1933"
   pagecolor="#ffffff"
   bordercolor="#666666"
   borderopacity="1.0"
   inkscape:showpageshadow="2"
   inkscape:pageopacity="0.0"
   inkscape:pagecheckerboard="0"
   inkscape:deskcolor="#d1d1d1"
   showgrid="false"
   inkscape:zoom="0.99621007"
   inkscape:cx="54.707337"
   inkscape:cy="322.2212"
   inkscape:window-width="1920"
   inkscape:window-height="1017"
   inkscape:window-x="-8"
   inkscape:window-y="-8"
   inkscape:window-maximized="1"
   inkscape:current-layer="Pokéball" />
<style
   type="text/css"
   id="style1922">
	.st0{fill:#FFFFFF;}
	.st1{fill:#DFDFDF;}
	.st2{fill:#FF1C1C;}
	.st3{fill:#DF1818;}
</style>
<path
   id="Line"
   d="m 343.9,279.7 c 2,5.4 3.1,11.2 3.1,17.3 v 0 h 0.1 v 0 c 0,6.1 -1.1,11.9 -3.1,17.3 -7,18.8 -25.1,32.1 -46.3,32.1 -21.2,0 -39.3,-13.4 -46.3,-32.1 -2,-5.4 -3.1,-11.2 -3.1,-17.3 v 0 h -0.1 v 0 c 0,-6.1 1.1,-11.9 3.1,-17.3 m 44.9,231.9 c -113,0 -205.7,-86.7 -215.1,-197.2 h 134.4 c 8,38 41.7,66.6 82.1,66.6 40.4,0 74.1,-28.6 82.1,-66.6 H 511.4 C 501.9,424.8 409.2,511.6 296.2,511.6 Z M 42.23277,279.7 c -0.110477,2.17884 -0.193669,8.50826 -0.249243,10.70114 C 41.927954,292.59402 41.9,294.79375 41.9,297 c 0,141.2 114.5,255.7 255.7,255.7 141.2,0 255.8,-114.4 255.8,-255.7 0,-4.41562 -0.11182,-8.80498 -0.33277,-13.1654 -0.0552,-1.0901 -0.1173,-3.04816 -0.18614,-4.1346"
   sodipodi:nodetypes="csccscscsccscsccsccscsssssc" />
<path
   id="Down"
   class="st0"
   d="m 297.65537,381.03504 c -40.4,0 -74.1,-28.6 -82.1,-66.6 H 81.155367 c 9.5,110.5 102.200003,197.2 215.100003,197.2 112.9,0 205.7,-86.7 215.1,-197.2 h -131.6 c -8,38.1 -41.7,66.6 -82.1,66.6 z"
   style="fill:#ffffff" /><path
   id="Shadow_Down"
   class="st1"
   d="m 345.65537,506.03504 c 89.6,-21 157.7,-97.7 165.7,-191.6 h -53 c -5.3,85.2 -50,157.4 -112.7,191.6 z"
   style="fill:#dfdfdf" /></svg>
